#N canvas 764 157 752 655 10;
#X obj 106 30 inlet;
#X obj 435 139 inlet;
#X obj 106 55 sel 0;
#X obj 188 230 t b;
#X obj 188 259 f \$1;
#X obj 188 284 pack 0 \$2;
#X obj 478 139 inlet;
#X obj 438 264 del \$2;
#X obj 329 462 line~;
#X obj 462 290 f \$4;
#X obj 501 380 pack 0 \$3;
#X obj 519 139 inlet;
#X obj 560 139 inlet;
#X obj 600 138 inlet;
#X msg 106 98 stop;
#X obj 549 279 pack 0 \$5;
#X obj 501 355 * \$1;
#X obj 329 487 outlet~;
#X obj 462 315 * 0.01;
#X obj 133 173 moses;
#X obj 133 198 t b b;
#X msg 160 302 0;
#X text 107 12 vel;
#X text 436 118 lvl;
#X text 478 119 att;
#X text 521 118 dec;
#X text 562 120 sus;
#X text 602 120 rel;
#X connect 0 0 2 0;
#X connect 1 0 4 1;
#X connect 1 0 16 1;
#X connect 2 0 14 0;
#X connect 2 0 15 0;
#X connect 2 1 19 0;
#X connect 3 0 4 0;
#X connect 3 0 7 0;
#X connect 4 0 5 0;
#X connect 5 0 8 0;
#X connect 6 0 5 1;
#X connect 6 0 7 1;
#X connect 7 0 9 0;
#X connect 8 0 17 0;
#X connect 9 0 18 0;
#X connect 10 0 8 0;
#X connect 11 0 10 1;
#X connect 12 0 9 1;
#X connect 13 0 15 1;
#X connect 14 0 7 0;
#X connect 15 0 8 0;
#X connect 16 0 10 0;
#X connect 18 0 16 0;
#X connect 19 0 20 0;
#X connect 19 1 3 0;
#X connect 20 0 3 0;
#X connect 20 1 21 0;
#X connect 21 0 8 0;
