#N canvas 0 22 696 663 10;
#X obj 70 437 fm_voice;
#X obj 115 275 r modulation;
#X text 55 419 pitch;
#X obj 70 242 * 1;
#X obj 70 521 throw~ synthout;
#X obj 439 264 * 1;
#X text 463 265 velocity;
#X obj 70 220 mtof;
#X obj 70 491 *~;
#X obj 70 183 unpack;
#X obj 70 147 inlet;
#X obj 115 392 +;
#X obj 115 365 f;
#X obj 115 338 t b f;
#X obj 224 261 * 1;
#X text 248 262 velocity;
#X obj 439 396 adsr2 2 30 200 50 500;
#X obj 184 398 adsr_mod2 2 30 200 50 500;
#X obj 246 284 r level_mod-\$1;
#X obj 270 305 r attack_mod-\$1;
#X obj 294 326 r decay_mod-\$1;
#X obj 317 350 r sustain_mod-\$1;
#X obj 341 371 r release_mod-\$1;
#X obj 462 287 r level-\$1;
#X obj 485 308 r attack-\$1;
#X obj 509 329 r decay-\$1;
#X obj 532 353 r sustain-\$1;
#X obj 556 374 r release-\$1;
#X connect 0 0 8 0;
#X connect 1 0 13 0;
#X connect 3 0 0 0;
#X connect 5 0 16 0;
#X connect 7 0 3 0;
#X connect 8 0 4 0;
#X connect 9 0 7 0;
#X connect 9 1 5 0;
#X connect 9 1 14 0;
#X connect 10 0 9 0;
#X connect 11 0 0 1;
#X connect 12 0 11 0;
#X connect 13 0 12 0;
#X connect 13 1 11 1;
#X connect 14 0 17 0;
#X connect 16 0 8 1;
#X connect 17 0 12 0;
#X connect 18 0 17 1;
#X connect 19 0 17 2;
#X connect 20 0 17 3;
#X connect 21 0 17 4;
#X connect 22 0 17 5;
#X connect 23 0 16 1;
#X connect 24 0 16 2;
#X connect 25 0 16 3;
#X connect 26 0 16 4;
#X connect 27 0 16 5;
