#N canvas 72 0 742 778 10;
#X obj 178 157 vsl 15 128 0 1000 0 0 modulation empty modulation_(sweep)
0 -9 0 10 -262144 -1 -1 0 1;
#X obj 28 52 vsl 15 128 0 2 0 0 level empty level 0 -9 0 10 -262144
-1 -1 0 1;
#X obj 56 77 vsl 15 128 4 500 0 0 attack empty attack 0 -9 0 10 -261234
-1 -1 0 1;
#X obj 84 96 vsl 15 128 0 500 0 0 decay empty decay 0 -9 0 10 -261682
-1 -1 0 1;
#X obj 114 114 vsl 15 128 0 100 0 0 sustain empty sustain 0 -9 0 10
-262130 -1 -1 0 1;
#X obj 145 134 vsl 15 128 0 1500 0 0 release empty release 0 -9 0 10
-228856 -1 -1 0 1;
#X obj 25 307 poly 6 1;
#X obj 25 331 pack 1 2 3;
#X obj 25 354 route 1 2 3 4 5 6;
#X obj 19 474 catch~ synthout;
#X obj 338 77 vsl 15 128 0 1000 0 0 level_mod empty level_mod 0 -9
0 10 -204786 -1 -1 0 1;
#X obj 366 102 vsl 15 128 0 500 0 0 attack_mod empty attack_mod 0 -9
0 10 -204800 -1 -1 0 1;
#X obj 394 121 vsl 15 128 0 500 0 0 decay_mod empty decay_mod 0 -9
0 10 -203904 -1 -1 0 1;
#X obj 424 139 vsl 15 128 0 100 0 0 sustain_mod empty sustain_mod 0
-9 0 10 -232576 -1 -1 0 1;
#X obj 455 159 vsl 15 128 0 1000 0 0 release_mod empty release_mod
0 -9 0 10 -262144 -1 -1 0 1;
#X text 353 34 (Modulation control);
#X text 72 38 (Amplitude control);
#X obj 260 300 hradio 15 1 0 6 empty empty empty 0 -8 0 10 -258113
-1 -1 3;
#X floatatom 260 318 5 0 0 0 - - -, f 5;
#X obj 236 261 r synthPreset;
#N canvas 62 0 1218 778 presets 0;
#X obj 44 58 r level;
#X obj 93 58 r attack;
#X obj 149 58 r decay;
#X obj 199 58 r sustain;
#X obj 260 59 r release;
#X obj 386 58 r modulation;
#X obj 468 58 r level_mod;
#X obj 542 58 r attack_mod;
#X obj 623 58 r decay_mod;
#X obj 697 58 r sustain_mod;
#X obj 782 58 r release_mod;
#X floatatom 45 79 5 0 0 0 - - -, f 5;
#X floatatom 93 79 5 0 0 0 - - -, f 5;
#X floatatom 149 78 5 0 0 0 - - -, f 5;
#X floatatom 199 78 5 0 0 0 - - -, f 5;
#X floatatom 260 78 5 0 0 0 - - -, f 5;
#X floatatom 387 79 5 0 0 0 - - -, f 5;
#X floatatom 468 79 5 0 0 0 - - -, f 5;
#X floatatom 542 79 5 0 0 0 - - -, f 5;
#X floatatom 623 79 5 0 0 0 - - -, f 5;
#X floatatom 697 79 5 0 0 0 - - -, f 5;
#X floatatom 783 79 5 0 0 0 - - -, f 5;
#X obj 447 197 sel 0 1 2 3 4 5;
#X msg 633 732 2;
#X msg 703 730 2;
#X obj 447 169 inlet;
#X msg 768 748 0;
#X msg 691 749 0;
#X msg 621 751 0;
#X msg 548 750 0;
#X msg 483 751 0;
#X msg 419 751 228;
#X msg 346 750 1500;
#X msg 276 752 100;
#X msg 203 751 133;
#X msg 215 732 133;
#X msg 288 733 100;
#X msg 358 731 330;
#X msg 431 732 456;
#X msg 495 732 527;
#X msg 560 731 32;
#X msg 780 729 370;
#X msg 853 730 5000;
#X msg 138 752 4;
#X msg 150 733 4;
#X msg 166 714 4;
#X msg 231 713 0;
#X msg 304 714 100;
#X msg 374 712 188;
#X msg 447 713 47;
#X msg 511 713 527;
#X msg 576 712 0;
#X msg 649 713 0;
#X msg 719 711 0;
#X msg 796 710 259;
#X msg 869 711 5000;
#X msg 114 695 2;
#X msg 178 695 375;
#X msg 243 694 0;
#X msg 316 695 100;
#X msg 386 693 1015;
#X msg 459 694 685;
#X msg 523 694 1000;
#X msg 588 693 444;
#X msg 661 694 236;
#X msg 731 692 73;
#X msg 808 691 472;
#X msg 881 692 2589;
#X msg 132 675 2;
#X msg 196 675 121;
#X msg 261 674 354;
#X msg 334 675 90;
#X msg 404 673 685;
#X msg 606 673 55;
#X msg 679 674 51;
#X msg 749 672 23;
#X msg 826 671 472;
#X msg 144 656 1.165;
#X msg 208 656 4;
#X msg 273 655 500;
#X msg 346 656 100;
#X msg 416 654 1500;
#X msg 489 655 1000;
#X msg 553 655 1000;
#X msg 618 654 0;
#X msg 691 655 500;
#X msg 761 653 100;
#X msg 838 652 1000;
#X msg 911 653 5000;
#X msg 102 714 1.7;
#X msg 841 749 2000;
#X msg 541 674 500;
#X msg 477 674 10;
#X msg 899 672 2000;
#X msg 74 752 1.6;
#X msg 86 733 1.4;
#X obj 67 781 s level;
#X obj 138 781 s attack;
#X obj 203 780 s decay;
#X obj 276 781 s sustain;
#X obj 346 779 s release;
#X obj 419 780 s modulation;
#X obj 502 803 s level_mod;
#X obj 548 779 s attack_mod;
#X obj 628 812 s decay_mod;
#X obj 691 778 s sustain_mod;
#X obj 787 809 s release_mod;
#X obj 841 778 s lopassfreq;
#X connect 0 0 11 0;
#X connect 1 0 12 0;
#X connect 2 0 13 0;
#X connect 3 0 14 0;
#X connect 4 0 15 0;
#X connect 5 0 16 0;
#X connect 6 0 17 0;
#X connect 7 0 18 0;
#X connect 8 0 19 0;
#X connect 9 0 20 0;
#X connect 10 0 21 0;
#X connect 22 0 94 0;
#X connect 22 0 43 0;
#X connect 22 0 34 0;
#X connect 22 0 33 0;
#X connect 22 0 32 0;
#X connect 22 0 31 0;
#X connect 22 0 30 0;
#X connect 22 0 29 0;
#X connect 22 0 28 0;
#X connect 22 0 27 0;
#X connect 22 0 26 0;
#X connect 22 0 90 0;
#X connect 22 1 95 0;
#X connect 22 1 44 0;
#X connect 22 1 35 0;
#X connect 22 1 36 0;
#X connect 22 1 37 0;
#X connect 22 1 38 0;
#X connect 22 1 39 0;
#X connect 22 1 40 0;
#X connect 22 1 23 0;
#X connect 22 1 24 0;
#X connect 22 1 41 0;
#X connect 22 1 42 0;
#X connect 22 2 89 0;
#X connect 22 2 45 0;
#X connect 22 2 46 0;
#X connect 22 2 47 0;
#X connect 22 2 48 0;
#X connect 22 2 49 0;
#X connect 22 2 50 0;
#X connect 22 2 51 0;
#X connect 22 2 52 0;
#X connect 22 2 53 0;
#X connect 22 2 54 0;
#X connect 22 2 55 0;
#X connect 22 3 56 0;
#X connect 22 3 57 0;
#X connect 22 3 58 0;
#X connect 22 3 59 0;
#X connect 22 3 60 0;
#X connect 22 3 61 0;
#X connect 22 3 62 0;
#X connect 22 3 63 0;
#X connect 22 3 64 0;
#X connect 22 3 65 0;
#X connect 22 3 66 0;
#X connect 22 3 67 0;
#X connect 22 4 68 0;
#X connect 22 4 69 0;
#X connect 22 4 70 0;
#X connect 22 4 71 0;
#X connect 22 4 72 0;
#X connect 22 4 92 0;
#X connect 22 4 91 0;
#X connect 22 4 73 0;
#X connect 22 4 74 0;
#X connect 22 4 75 0;
#X connect 22 4 76 0;
#X connect 22 4 93 0;
#X connect 22 5 77 0;
#X connect 22 5 78 0;
#X connect 22 5 79 0;
#X connect 22 5 80 0;
#X connect 22 5 81 0;
#X connect 22 5 82 0;
#X connect 22 5 83 0;
#X connect 22 5 84 0;
#X connect 22 5 85 0;
#X connect 22 5 86 0;
#X connect 22 5 87 0;
#X connect 22 5 88 0;
#X connect 23 0 104 0;
#X connect 24 0 105 0;
#X connect 25 0 22 0;
#X connect 26 0 106 0;
#X connect 27 0 105 0;
#X connect 28 0 104 0;
#X connect 29 0 103 0;
#X connect 30 0 102 0;
#X connect 31 0 101 0;
#X connect 32 0 100 0;
#X connect 33 0 99 0;
#X connect 34 0 98 0;
#X connect 35 0 98 0;
#X connect 36 0 99 0;
#X connect 37 0 100 0;
#X connect 38 0 101 0;
#X connect 39 0 102 0;
#X connect 40 0 103 0;
#X connect 41 0 106 0;
#X connect 42 0 107 0;
#X connect 43 0 97 0;
#X connect 44 0 97 0;
#X connect 45 0 97 0;
#X connect 46 0 98 0;
#X connect 47 0 99 0;
#X connect 48 0 100 0;
#X connect 49 0 101 0;
#X connect 50 0 102 0;
#X connect 51 0 103 0;
#X connect 52 0 104 0;
#X connect 53 0 105 0;
#X connect 54 0 106 0;
#X connect 55 0 107 0;
#X connect 56 0 96 0;
#X connect 57 0 97 0;
#X connect 58 0 98 0;
#X connect 59 0 99 0;
#X connect 60 0 100 0;
#X connect 61 0 101 0;
#X connect 62 0 102 0;
#X connect 63 0 103 0;
#X connect 64 0 104 0;
#X connect 65 0 105 0;
#X connect 66 0 106 0;
#X connect 67 0 107 0;
#X connect 68 0 96 0;
#X connect 69 0 97 0;
#X connect 70 0 98 0;
#X connect 71 0 99 0;
#X connect 72 0 100 0;
#X connect 73 0 103 0;
#X connect 74 0 104 0;
#X connect 75 0 105 0;
#X connect 76 0 106 0;
#X connect 77 0 96 0;
#X connect 78 0 97 0;
#X connect 79 0 98 0;
#X connect 80 0 99 0;
#X connect 81 0 100 0;
#X connect 82 0 101 0;
#X connect 83 0 102 0;
#X connect 84 0 103 0;
#X connect 85 0 104 0;
#X connect 86 0 105 0;
#X connect 87 0 106 0;
#X connect 88 0 107 0;
#X connect 89 0 96 0;
#X connect 90 0 107 0;
#X connect 91 0 102 0;
#X connect 92 0 101 0;
#X connect 93 0 107 0;
#X connect 94 0 96 0;
#X connect 95 0 96 0;
#X restore 260 336 pd presets;
#X obj 25 281 notein;
#X obj 14 401 fm_engine_3;
#X obj 111 402 fm_engine_3;
#X obj 209 402 fm_engine_3;
#X obj 307 402 fm_engine_3;
#X obj 402 402 fm_engine_3;
#X obj 498 400 fm_engine_3;
#X obj 22 253 inlet;
#X obj 77 255 inlet;
#X obj 26 555 outlet~;
#X obj 42 516 *~ 0.2;
#X connect 6 0 7 0;
#X connect 6 1 7 1;
#X connect 6 2 7 2;
#X connect 7 0 8 0;
#X connect 8 0 22 0;
#X connect 8 1 23 0;
#X connect 8 2 24 0;
#X connect 8 3 25 0;
#X connect 8 4 26 0;
#X connect 8 5 27 0;
#X connect 9 0 31 0;
#X connect 17 0 18 0;
#X connect 18 0 20 0;
#X connect 19 0 18 0;
#X connect 21 0 6 0;
#X connect 21 1 6 1;
#X connect 28 0 6 0;
#X connect 29 0 6 1;
#X connect 31 0 30 0;
