#N canvas 0 22 376 373 10;
#X obj 180 207 *~;
#X obj 221 191 line~;
#X obj 107 273 cos~;
#X obj 107 248 +~;
#X obj 221 168 pack 0 50;
#X floatatom 221 120 0 0 0 0 - - -;
#X obj 221 144 / 100;
#X obj 107 223 phasor~;
#X obj 179 136 osc~;
#X text 244 125 index (x100);
#X text 69 183 carrier harmonic #;
#X obj 179 105 inlet;
#X obj 107 306 outlet~;
#X obj 221 94 inlet;
#X obj 107 199 * 2;
#X connect 0 0 3 1;
#X connect 1 0 0 1;
#X connect 2 0 12 0;
#X connect 3 0 2 0;
#X connect 4 0 1 0;
#X connect 5 0 6 0;
#X connect 6 0 4 0;
#X connect 7 0 3 0;
#X connect 8 0 0 0;
#X connect 11 0 8 0;
#X connect 11 0 14 0;
#X connect 13 0 5 0;
#X connect 14 0 7 0;
