#N canvas 65 120 1119 540 10;
#X obj 159 380 dac~;
#X obj 159 356 globalFX;
#X obj 159 113 triggeredSoundFx;
#X obj 159 139 *~ 1;
#N canvas 653 192 450 300 metroSync 0;
#X obj 71 57 inlet;
#X msg 121 90 tempo \$1 permin;
#X obj 127 55 inlet;
#X obj 197 59 inlet;
#X obj 73 401 outlet;
#X obj 73 361 select 4;
#X obj 97 225 i;
#X obj 103 265 + 1;
#X floatatom 85 293 5 0 0 0 - - -, f 5;
#X msg 149 187 0;
#X obj 93 187 bng 15 250 50 0 empty empty empty 17 7 0 10 -262144 -1
-1;
#X obj 71 137 metro 1 105 permin;
#X connect 0 0 11 0;
#X connect 1 0 11 0;
#X connect 2 0 1 0;
#X connect 3 0 5 1;
#X connect 5 0 4 0;
#X connect 5 0 9 0;
#X connect 6 0 7 0;
#X connect 6 0 8 0;
#X connect 7 0 6 1;
#X connect 8 0 5 0;
#X connect 9 0 6 0;
#X connect 10 0 6 0;
#X connect 11 0 10 0;
#X restore 452 164 pd metroSync;
#X obj 452 210 bng 15 250 50 0 empty empty empty 17 7 0 10 -262144
-1 -1;
#X obj 452 128 tgl 15 0 empty empty empty 17 7 0 10 -262144 -1 -1 0
1;
#X floatatom 486 128 5 0 0 0 - - -, f 5;
#X msg 521 128 4;
#X obj 283 111 zonalPlayerMixer;
#N canvas 0 0 1211 778 motif 1;
#X obj 128 343 line~;
#X obj 87 386 *~;
#X obj 158 388 *~;
#X obj 190 273 sel 0 1;
#X obj 188 242 r motifLayer0;
#X obj 614 599 outlet~;
#X obj 682 598 outlet~;
#X obj 341 349 line~;
#X msg 339 311 0 500;
#X msg 394 310 1 500;
#X obj 300 392 *~;
#X obj 371 394 *~;
#X obj 403 279 sel 0 1;
#X obj 572 353 line~;
#X msg 570 315 0 500;
#X msg 625 314 1 500;
#X obj 531 396 *~;
#X obj 602 398 *~;
#X obj 634 283 sel 0 1;
#X obj 785 359 line~;
#X msg 783 321 0 500;
#X msg 838 320 1 500;
#X obj 744 402 *~;
#X obj 815 404 *~;
#X obj 847 289 sel 0 1;
#X obj 985 357 line~;
#X msg 983 319 0 500;
#X msg 1038 318 1 500;
#X obj 944 400 *~;
#X obj 1003 401 *~;
#X obj 1047 287 sel 0 1;
#X obj 401 248 r motifLayer1;
#X obj 632 252 r motifLayer2;
#X obj 845 258 r motifLayer3;
#X obj 1045 256 r motifLayer4;
#X obj 1178 354 line~;
#X msg 1176 316 0 500;
#X msg 1231 315 1 500;
#X obj 1137 397 *~;
#X obj 1196 398 *~;
#X obj 1240 284 sel 0 1;
#X obj 1238 253 r motifLayer5;
#X obj 614 98 loadbang;
#X msg 97 202 samples/home_01.wav;
#X msg 310 208 samples/home_02.wav;
#X msg 541 212 samples/home_03.wav;
#X msg 754 218 samples/home_04.wav;
#X msg 954 216 samples/home_05.wav;
#X msg 1147 213 samples/home_06.wav;
#X obj 98 236 samplePlayer 0;
#X obj 311 242 samplePlayer 1;
#X obj 542 246 samplePlayer 2;
#X obj 755 252 samplePlayer 3;
#X obj 955 250 samplePlayer 4;
#X obj 1148 247 samplePlayer 5;
#X msg 126 305 0 500;
#X msg 181 304 1 20;
#X connect 0 0 1 1;
#X connect 0 0 2 1;
#X connect 1 0 5 0;
#X connect 2 0 6 0;
#X connect 3 0 55 0;
#X connect 3 1 56 0;
#X connect 4 0 3 0;
#X connect 7 0 10 1;
#X connect 7 0 11 1;
#X connect 8 0 7 0;
#X connect 9 0 7 0;
#X connect 10 0 5 0;
#X connect 11 0 6 0;
#X connect 12 0 8 0;
#X connect 12 1 9 0;
#X connect 13 0 16 1;
#X connect 13 0 17 1;
#X connect 14 0 13 0;
#X connect 15 0 13 0;
#X connect 16 0 5 0;
#X connect 17 0 6 0;
#X connect 18 0 14 0;
#X connect 18 1 15 0;
#X connect 19 0 22 1;
#X connect 19 0 23 1;
#X connect 20 0 19 0;
#X connect 21 0 19 0;
#X connect 22 0 5 0;
#X connect 23 0 6 0;
#X connect 24 0 20 0;
#X connect 24 1 21 0;
#X connect 25 0 28 1;
#X connect 25 0 29 1;
#X connect 26 0 25 0;
#X connect 27 0 25 0;
#X connect 28 0 5 0;
#X connect 29 0 6 0;
#X connect 30 0 26 0;
#X connect 30 1 27 0;
#X connect 31 0 12 0;
#X connect 32 0 18 0;
#X connect 33 0 24 0;
#X connect 34 0 30 0;
#X connect 35 0 38 1;
#X connect 35 0 39 1;
#X connect 36 0 35 0;
#X connect 37 0 35 0;
#X connect 38 0 5 0;
#X connect 39 0 6 0;
#X connect 40 0 36 0;
#X connect 40 1 37 0;
#X connect 41 0 40 0;
#X connect 42 0 43 0;
#X connect 42 0 44 0;
#X connect 42 0 45 0;
#X connect 42 0 46 0;
#X connect 42 0 47 0;
#X connect 42 0 48 0;
#X connect 43 0 49 0;
#X connect 44 0 50 0;
#X connect 45 0 51 0;
#X connect 46 0 52 0;
#X connect 47 0 53 0;
#X connect 48 0 54 0;
#X connect 49 0 1 0;
#X connect 49 1 2 0;
#X connect 50 0 10 0;
#X connect 50 1 11 0;
#X connect 51 0 16 0;
#X connect 51 1 17 0;
#X connect 52 0 22 0;
#X connect 52 1 23 0;
#X connect 53 0 28 0;
#X connect 53 1 29 0;
#X connect 54 0 38 0;
#X connect 54 1 39 0;
#X connect 55 0 0 0;
#X connect 56 0 0 0;
#X restore 42 115 pd motif;
#X obj 472 210 s metroSync;
#X obj 283 56 r hueAngle;
#X obj 521 71 loadbang;
#X obj 283 146 *~;
#X obj 312 147 *~;
#X obj 349 221 r distance;
#X floatatom 347 252 5 0 0 0 - - -, f 5;
#X obj 347 296 line~;
#X msg 347 272 \$1 20;
#X obj 521 99 del 500;
#X obj 774 205 s hueAngle;
#X obj 703 205 s distance;
#X obj 774 45 vsl 15 128 0 1 0 0 empty empty empty 0 -9 0 10 -262144
-1 -1 0 1;
#X obj 704 45 vsl 15 128 0 1 0 0 empty empty empty 0 -9 0 10 -262144
-1 -1 0 1;
#X obj 535 307 s motifLayer0;
#X obj 621 306 s motifLayer1;
#X obj 708 307 s motifLayer2;
#X obj 794 306 s motifLayer3;
#X obj 886 306 s motifLayer4;
#X obj 972 305 s motifLayer5;
#X obj 535 272 tgl 15 0 empty empty empty 17 7 0 10 -262144 -1 -1 1
1;
#X obj 621 271 tgl 15 0 empty empty empty 17 7 0 10 -262144 -1 -1 0
1;
#X obj 708 270 tgl 15 0 empty empty empty 17 7 0 10 -262144 -1 -1 0
1;
#X obj 794 269 tgl 15 0 empty empty empty 17 7 0 10 -262144 -1 -1 0
1;
#X obj 886 268 tgl 15 0 empty empty empty 17 7 0 10 -262144 -1 -1 0
1;
#X obj 972 268 tgl 15 0 empty empty empty 17 7 0 10 -262144 -1 -1 0
1;
#X obj 934 100 s soundFXTrigger;
#X obj 289 323 * -1;
#X obj 289 344 + 1;
#X msg 289 365 \$1 20;
#X obj 289 386 line~;
#X obj 42 154 *~;
#X obj 87 154 *~;
#X msg 947 14 62;
#X msg 923 35 58;
#X msg 968 46 55;
#X msg 1012 56 50;
#X obj 677 14 loadbang;
#X msg 745 34 0;
#N canvas 193 106 904 364 intro 1;
#X obj 233 156 samplePlayer 12;
#X obj 616 188 s 12-phasorReset;
#X obj 616 163 bng 15 250 50 0 empty empty empty 17 7 0 10 -262144
-1 -1;
#X obj 80 154 samplePlayer 11;
#X obj 130 72 loadbang;
#X text 423 8 reset the phase when triggering the intro one shot;
#X obj 547 28 r introLoopToggle;
#X obj 548 65 sel 0 1;
#X msg 524 101 0 500;
#X msg 579 101 1 500;
#X obj 735 48 r introStart;
#N canvas 125 410 661 300 phasorResets 0;
#X obj 86 36 inlet;
#X obj 57 112 s 0-phasorReset;
#X obj 159 111 s 1-phasorReset;
#X obj 260 112 s 2-phasorReset;
#X obj 362 111 s 3-phasorReset;
#X obj 462 110 s 4-phasorReset;
#X obj 564 109 s 5-phasorReset;
#X obj 177 71 s zonalReset;
#X msg 95 63 0;
#X connect 0 0 8 0;
#X connect 8 0 7 0;
#X connect 8 0 1 0;
#X connect 8 0 2 0;
#X connect 8 0 3 0;
#X connect 8 0 4 0;
#X connect 8 0 5 0;
#X connect 8 0 6 0;
#X restore 733 149 pd phasorResets;
#X msg 667 72 0;
#X obj 539 190 del 30;
#X msg 532 221 1 500;
#X obj 526 252 line~;
#X obj 529 136 line~;
#X obj 81 206 *~;
#X obj 130 209 *~;
#X obj 237 208 *~;
#X obj 286 211 *~;
#X obj 170 282 outlet~;
#X obj 235 284 outlet~;
#X obj 812 127 s motifStart;
#X obj 812 105 del 30;
#X msg 240 118 samples/intro_motif.wav;
#X obj 480 42 tgl 15 0 empty empty empty 17 7 0 10 -262144 -1 -1 0
1;
#X obj 658 28 loadbang;
#X msg 595 47 1;
#X msg 79 108 samples/menu_loop.wav;
#X obj 749 261 s introStart;
#X msg 751 226 bang;
#X obj 816 188 bng 15 250 50 0 empty empty empty 17 7 0 10 -262144
-1 -1;
#X obj 735 92 del 12600;
#X msg 599 226 0 20;
#X obj 661 310 s pdReset;
#X obj 660 277 bng 15 250 50 0 empty empty empty 17 7 0 10 -262144
-1 -1;
#X obj 676 126 del 29000;
#X connect 0 0 19 0;
#X connect 0 1 20 0;
#X connect 2 0 1 0;
#X connect 2 0 13 0;
#X connect 3 0 17 0;
#X connect 3 1 18 0;
#X connect 4 0 29 0;
#X connect 4 0 25 0;
#X connect 6 0 7 0;
#X connect 7 0 8 0;
#X connect 7 1 9 0;
#X connect 8 0 16 0;
#X connect 9 0 16 0;
#X connect 10 0 12 0;
#X connect 10 0 2 0;
#X connect 10 0 33 0;
#X connect 10 0 37 0;
#X connect 12 0 7 0;
#X connect 13 0 14 0;
#X connect 14 0 15 0;
#X connect 15 0 20 1;
#X connect 15 0 19 1;
#X connect 16 0 18 1;
#X connect 16 0 17 1;
#X connect 17 0 21 0;
#X connect 18 0 22 0;
#X connect 19 0 21 0;
#X connect 20 0 22 0;
#X connect 24 0 23 0;
#X connect 24 0 32 0;
#X connect 25 0 0 0;
#X connect 26 0 7 0;
#X connect 27 0 28 0;
#X connect 28 0 7 0;
#X connect 29 0 3 0;
#X connect 31 0 30 0;
#X connect 33 0 11 0;
#X connect 33 0 24 0;
#X connect 34 0 15 0;
#X connect 36 0 35 0;
#X connect 37 0 34 0;
#X restore 28 324 pd intro;
#X obj 535 232 r motifStart;
#X msg 535 254 1;
#N canvas 242 122 450 346 windSpeedSound 0;
#X obj 111 81 noise~;
#X obj 340 118 vsl 15 128 0 1 0 0 empty empty empty 0 -9 0 10 -262144
-1 -1 0 1;
#X obj 120 184 bp~ 100 10;
#X obj 203 -10 vsl 15 128 0.2 1 0 0 empty empty empty 0 -9 0 10 -262144
-1 -1 0 1;
#X obj 199 143 * 2000;
#X obj 260 65 * -1;
#X obj 260 86 + 1;
#X obj 262 120 * 20;
#X obj 261 143 + 3;
#X obj 47 183 *~;
#X obj 63 150 +~ 1;
#X obj 41 120 osc~ 0.1;
#X obj 256 7 r movementSpeed;
#X obj 127 235 *~ 0.2;
#X obj 130 278 outlet~;
#X connect 0 0 9 0;
#X connect 0 0 2 0;
#X connect 1 0 13 1;
#X connect 2 0 13 0;
#X connect 3 0 4 0;
#X connect 3 0 5 0;
#X connect 4 0 2 1;
#X connect 5 0 6 0;
#X connect 6 0 7 0;
#X connect 7 0 8 0;
#X connect 8 0 2 2;
#X connect 9 0 2 0;
#X connect 10 0 9 1;
#X connect 11 0 10 0;
#X connect 12 0 3 0;
#X connect 13 0 14 0;
#X restore 472 395 pd windSpeedSound;
#X obj 755 376 r pdReset;
#X msg 756 409 0;
#X obj 756 439 s motifLayer0;
#X obj 673 437 s distance;
#X obj 681 461 s hueAngle;
#X obj 591 463 s zonalReset;
#X obj 550 443 s introLoopToggle;
#X msg 592 415 1;
#X obj 645 394 s movementSpeed;
#X msg 652 364 0.2;
#X obj 459 477 s pdReset;
#X obj 463 439 bng 15 250 50 0 empty empty empty 17 7 0 10 -262144
-1 -1;
#X obj 765 464 s motifLayer1;
#X obj 847 448 s motifLayer2;
#X obj 856 473 s motifLayer3;
#X obj 937 456 s motifLayer4;
#X obj 946 481 s motifLayer5;
#X connect 1 0 0 0;
#X connect 1 1 0 1;
#X connect 2 0 3 0;
#X connect 3 0 1 0;
#X connect 3 0 1 1;
#X connect 4 0 5 0;
#X connect 6 0 4 0;
#X connect 7 0 4 1;
#X connect 8 0 4 2;
#X connect 9 0 14 0;
#X connect 9 1 15 0;
#X connect 10 0 42 0;
#X connect 10 1 43 0;
#X connect 12 0 9 0;
#X connect 13 0 20 0;
#X connect 14 0 1 0;
#X connect 15 0 1 1;
#X connect 16 0 17 0;
#X connect 17 0 19 0;
#X connect 17 0 38 0;
#X connect 18 0 15 1;
#X connect 18 0 14 1;
#X connect 19 0 18 0;
#X connect 20 0 8 0;
#X connect 23 0 21 0;
#X connect 24 0 22 0;
#X connect 31 0 25 0;
#X connect 32 0 26 0;
#X connect 33 0 27 0;
#X connect 34 0 28 0;
#X connect 35 0 29 0;
#X connect 36 0 30 0;
#X connect 38 0 39 0;
#X connect 39 0 40 0;
#X connect 40 0 41 0;
#X connect 41 0 43 1;
#X connect 41 0 42 1;
#X connect 42 0 1 0;
#X connect 43 0 1 1;
#X connect 44 0 37 0;
#X connect 45 0 37 0;
#X connect 46 0 37 0;
#X connect 47 0 37 0;
#X connect 48 0 49 0;
#X connect 49 0 23 0;
#X connect 49 0 24 0;
#X connect 50 0 1 0;
#X connect 50 1 1 1;
#X connect 51 0 52 0;
#X connect 52 0 31 0;
#X connect 53 0 1 0;
#X connect 53 0 1 1;
#X connect 54 0 55 0;
#X connect 54 0 61 0;
#X connect 54 0 63 0;
#X connect 55 0 56 0;
#X connect 55 0 57 0;
#X connect 55 0 58 0;
#X connect 55 0 59 0;
#X connect 55 0 66 0;
#X connect 55 0 67 0;
#X connect 55 0 68 0;
#X connect 55 0 69 0;
#X connect 55 0 70 0;
#X connect 61 0 60 0;
#X connect 63 0 62 0;
#X connect 65 0 64 0;
