#N canvas 615 98 665 662 10;
#X obj 184 40 soundfiler;
#X obj 18 424 phasor~;
#X floatatom 18 370 5 0 0 0 - - -, f 5;
#X obj 18 713 hip~ 5;
#X obj 18 395 *;
#X obj 282 178 -;
#X obj 337 137 t f b;
#X floatatom 282 143 5 0 0 0 - - -, f 5;
#X obj 18 290 *;
#X obj 18 478 +~;
#X obj 18 450 *~;
#X obj 248 87 r grenze-rechts;
#X obj 371 85 r grenze-links;
#X obj 54 297 r geschw;
#X obj 54 329 t b f;
#X obj 18 534 *~;
#X msg 31 167 44100;
#X obj 42 194 /;
#X obj 34 137 t b f;
#X obj 95 237 /;
#X msg 92 199 1;
#X obj 105 167 t b f;
#X obj 17 744 outlet~;
#X obj 93 714 hip~ 5;
#X obj 92 745 outlet~;
#X msg 329 111 0;
#X msg 289 114 1;
#X obj 146 260 loadbang;
#X msg 143 299 1;
#X obj 113 -37 inlet;
#X obj 17 688 *~ 1;
#X obj 92 689 *~ 1;
#X msg 248 310 0;
#N canvas 0 22 450 278 (subpatch) 0;
#X array \$0-arrayR 100 float 3;
#A 0 0 0 0 0 0 0 0 0 0 0 0 0 0 0 0 0 0 0 0 0 0 0 0 0 0 0 0 0 0 0 0
0 0 0 0 0 0 0 0 0 0 0 0 0 0 0 0 0 0 0 0 0 0 0 0 0 0 0 0 0 0 0 0 0 0
0 0 0 0 0 0 0 0 0 0 0 0 0 0 0 0 0 0 0 0 0 0 0 0 0 0 0 0 0 0 0 0 0 0
0;
#X coords 0 1 100 -1 200 140 1 0 0;
#X restore 462 391 graph;
#N canvas 0 22 450 278 (subpatch) 0;
#X array \$0-arrayL 100 float 3;
#A 0 0 0 0 0 0 0 0 0 0 0 0 0 0 0 0 0 0 0 0 0 0 0 0 0 0 0 0 0 0 0 0
0 0 0 0 0 0 0 0 0 0 0 0 0 0 0 0 0 0 0 0 0 0 0 0 0 0 0 0 0 0 0 0 0 0
0 0 0 0 0 0 0 0 0 0 0 0 0 0 0 0 0 0 0 0 0 0 0 0 0 0 0 0 0 0 0 0 0 0
0;
#X coords 0 1 100 -1 200 140 1;
#X restore 241 392 graph;
#X obj 8 561 tabread4~ \$0-arrayL;
#X obj 17 582 tabread4~ \$0-arrayR;
#X obj 149 -9 pack s \$0;
#X msg 185 13 read -resize \$1 \$2-arrayL \$2-arrayR;
#X obj 262 272 r \$1-phasorReset;
#X connect 0 0 15 1;
#X connect 0 0 18 0;
#X connect 0 0 26 0;
#X connect 0 0 25 0;
#X connect 1 0 10 0;
#X connect 2 0 4 0;
#X connect 3 0 22 0;
#X connect 4 0 1 0;
#X connect 5 0 10 1;
#X connect 5 0 21 0;
#X connect 6 0 5 1;
#X connect 6 0 9 1;
#X connect 6 1 7 0;
#X connect 7 0 5 0;
#X connect 8 0 2 0;
#X connect 9 0 15 0;
#X connect 10 0 9 0;
#X connect 11 0 7 0;
#X connect 12 0 6 0;
#X connect 13 0 14 0;
#X connect 14 0 2 0;
#X connect 14 1 4 1;
#X connect 15 0 35 0;
#X connect 15 0 36 0;
#X connect 16 0 17 0;
#X connect 17 0 8 1;
#X connect 18 0 16 0;
#X connect 18 1 17 1;
#X connect 19 0 8 0;
#X connect 20 0 19 0;
#X connect 21 0 20 0;
#X connect 21 1 19 1;
#X connect 23 0 24 0;
#X connect 25 0 6 0;
#X connect 26 0 7 0;
#X connect 27 0 28 0;
#X connect 28 0 14 0;
#X connect 29 0 37 0;
#X connect 30 0 3 0;
#X connect 31 0 23 0;
#X connect 32 0 1 1;
#X connect 35 0 30 0;
#X connect 36 0 31 0;
#X connect 37 0 38 0;
#X connect 38 0 0 0;
#X connect 39 0 32 0;
