#N canvas 514 128 450 300 10;
#X obj 136 177 outlet~;
#X obj 59 114 FM_Synth_4;
#X msg 241 60 60;
#X msg 292 64 55;
#X obj 243 123 makenote 127 500;
#X msg 336 86 40;
#X obj 253 19 r soundFXTrigger;
#X connect 1 0 0 0;
#X connect 2 0 4 0;
#X connect 3 0 4 0;
#X connect 4 0 1 0;
#X connect 4 1 1 1;
#X connect 5 0 4 0;
#X connect 6 0 4 0;
