#N canvas 457 82 525 449 10;
#X obj 200 241 outlet~;
#X obj 200 208 FM_Synth_4;
#X obj 196 169 makenote 127 500;
#X msg 349 133 40;
#X obj 32 54 r soundFXTrigger;
#X obj 263 35 bng 15 250 50 0 empty empty empty 17 7 0 10 -262144 -1
-1;
#X msg 263 60 66;
#X msg 272 106 65;
#X msg 308 107 64;
#X obj 192 37 bng 15 250 50 0 empty empty empty 17 7 0 10 -262144 -1
-1;
#X msg 151 92 72;
#X msg 169 54 67;
#X obj 274 81 del 20;
#X obj 181 76 del 80;
#X obj 137 5 r pillarActivated;
#X obj 271 5 r pillarCollision;
#X connect 1 0 0 0;
#X connect 2 0 1 0;
#X connect 2 1 1 1;
#X connect 3 0 2 0;
#X connect 4 0 2 0;
#X connect 5 0 6 0;
#X connect 6 0 2 0;
#X connect 6 0 12 0;
#X connect 7 0 2 0;
#X connect 8 0 2 0;
#X connect 9 0 11 0;
#X connect 10 0 2 0;
#X connect 11 0 2 0;
#X connect 11 0 13 0;
#X connect 12 0 7 0;
#X connect 12 0 8 0;
#X connect 13 0 10 0;
#X connect 14 0 9 0;
#X connect 15 0 5 0;
