#N canvas 457 82 525 449 10;
#X obj 204 316 outlet~;
#X obj 200 208 FM_Synth_4;
#X msg 349 133 40;
#X obj 32 54 r soundFXTrigger;
#X obj 263 35 bng 15 250 50 0 empty empty empty 17 7 0 10 -262144 -1
-1;
#X obj 192 37 bng 15 250 50 0 empty empty empty 17 7 0 10 -262144 -1
-1;
#X msg 151 92 72;
#X msg 169 54 67;
#X obj 137 5 r pillarActivated;
#X obj 271 5 r pillarCollision;
#N canvas 0 22 450 300 delay 0;
#X obj 99 40 inlet~;
#X obj 98 220 outlet~;
#X obj 121 161 delread~ delayLine 50;
#X obj 114 95 delwrite~ delayLine 500;
#X obj 184 131 *~ 0.5;
#X connect 0 0 1 0;
#X connect 0 0 3 0;
#X connect 2 0 1 0;
#X connect 2 0 4 0;
#X connect 4 0 3 0;
#X restore 201 248 pd delay;
#X obj 196 169 makenote 80 500;
#X obj 274 81 del 150;
#X obj 181 76 del 100;
#X msg 272 106 62;
#X msg 263 60 63;
#X connect 1 0 10 0;
#X connect 2 0 11 0;
#X connect 3 0 11 0;
#X connect 4 0 15 0;
#X connect 5 0 7 0;
#X connect 6 0 11 0;
#X connect 7 0 11 0;
#X connect 7 0 13 0;
#X connect 8 0 5 0;
#X connect 9 0 4 0;
#X connect 10 0 0 0;
#X connect 11 0 1 0;
#X connect 11 1 1 1;
#X connect 12 0 14 0;
#X connect 13 0 6 0;
#X connect 14 0 11 0;
#X connect 15 0 11 0;
#X connect 15 0 12 0;
