#N canvas 303 145 827 446 10;
#X obj 402 -76 vsl 15 128 0 1 0 0 empty empty empty 0 -9 0 10 -262144
-1 -1 0 1;
#X obj 90 148 vsl 15 128 0 1 0 0 empty empty empty 0 -9 0 10 -262144
-1 -1 12684 1;
#X obj 552 138 vsl 15 128 0 1 0 0 empty empty empty 0 -9 0 10 -262144
-1 -1 0 1;
#X obj 327 139 vsl 15 128 0 1 0 0 empty empty empty 0 -9 0 10 -262144
-1 -1 0 1;
#X obj 440 137 vsl 15 128 0 1 0 0 empty empty empty 0 -9 0 10 -262144
-1 -1 0 1;
#X obj 660 135 vsl 15 128 0 1 0 0 empty empty empty 0 -9 0 10 -262144
-1 -1 3443 1;
#X obj 213 144 vsl 15 128 0 1 0 0 empty empty empty 0 -9 0 10 -262144
-1 -1 2899 1;
#X obj 322 93 zonalPlayer 6 2;
#X obj 280 331 outlet~;
#X obj 374 335 outlet~;
#X obj 101 99 zonalPlayer 6 0;
#X obj 212 99 zonalPlayer 6 1;
#X obj 433 93 zonalPlayer 6 3;
#X obj 544 92 zonalPlayer 6 4;
#X obj 655 92 zonalPlayer 6 5;
#X obj 335 -72 inlet;
#X obj 291 -15 loadbang;
#X msg 284 58 samples/1.wav;
#X msg 391 62 samples/1.wav;
#X msg 502 62 samples/1.wav;
#X msg 608 51 samples/1.wav;
#X msg 719 51 samples/1.wav;
#X msg 154 58 samples/red_loop.wav;
#X connect 0 0 7 0;
#X connect 0 0 10 0;
#X connect 0 0 11 0;
#X connect 0 0 12 0;
#X connect 0 0 13 0;
#X connect 0 0 14 0;
#X connect 7 0 3 0;
#X connect 7 1 8 0;
#X connect 7 2 9 0;
#X connect 10 0 1 0;
#X connect 10 1 8 0;
#X connect 10 2 9 0;
#X connect 11 0 6 0;
#X connect 11 1 8 0;
#X connect 11 2 9 0;
#X connect 12 0 4 0;
#X connect 12 1 8 0;
#X connect 12 2 9 0;
#X connect 13 0 2 0;
#X connect 13 1 8 0;
#X connect 13 2 9 0;
#X connect 14 0 5 0;
#X connect 14 1 8 0;
#X connect 14 2 9 0;
#X connect 15 0 0 0;
#X connect 16 0 22 0;
#X connect 16 0 17 0;
#X connect 16 0 18 0;
#X connect 16 0 19 0;
#X connect 16 0 20 0;
#X connect 16 0 21 0;
#X connect 17 0 11 1;
#X connect 18 0 7 1;
#X connect 19 0 12 1;
#X connect 20 0 13 1;
#X connect 21 0 14 1;
#X connect 22 0 10 1;
