#N canvas 94 43 876 707 10;
#X obj 61 51 inlet;
#X obj 61 82 * 6.28319;
#X obj 61 140 cos;
#X obj 61 111 +;
#X obj 185 25 \$1;
#X obj 228 44 \$2;
#X obj 211 103 *;
#X floatatom 210 132 5 0 0 0 - - -, f 5;
#X obj 71 311 outlet;
#X obj 176 51 t b f;
#X obj 182 88 /;
#X msg 179 70 6.28319;
#X obj 221 -6 loadbang;
#X obj 434 83 soundfiler;
#X obj 268 467 phasor~;
#X floatatom 268 413 5 0 0 0 - - -, f 5;
#X floatatom 528 638 5 0 0 0 - - -, f 5;
#X obj 528 682 line~;
#X msg 528 658 \$1 20;
#X obj 268 756 hip~ 5;
#X obj 268 438 *;
#X obj 532 221 -;
#X obj 587 180 t f b;
#X floatatom 532 186 5 0 0 0 - - -, f 5;
#X obj 268 333 *;
#X obj 268 521 +~;
#X obj 268 493 *~;
#X obj 498 130 r grenze-rechts;
#X obj 621 128 r grenze-links;
#X obj 304 340 r geschw;
#X obj 304 372 t b f;
#X obj 268 577 *~;
#X msg 281 210 44100;
#X obj 292 237 /;
#X obj 284 180 t b f;
#X obj 345 280 /;
#X msg 342 242 1;
#X obj 355 210 t b f;
#N canvas 0 22 450 278 (subpatch) 0;
#X array array-\$0R 100 float 3;
#A 0 0 0 0 0 0 0 0 0 0 0 0 0 0 0 0 0 0 0 0 0 0 0 0 0 0 0 0 0 0 0 0
0 0 0 0 0 0 0 0 0 0 0 0 0 0 0 0 0 0 0 0 0 0 0 0 0 0 0 0 0 0 0 0 0 0
0 0 0 0 0 0 0 0 0 0 0 0 0 0 0 0 0 0 0 0 0 0 0 0 0 0 0 0 0 0 0 0 0 0
0;
#X coords 0 1 100 -1 200 140 1 0 0;
#X restore 647 405 graph;
#X obj 258 604 tabread4~ array-\$0L;
#X obj 267 625 tabread4~ array-\$0R;
#X obj 267 787 outlet~;
#N canvas 0 22 450 278 (subpatch) 0;
#X array array-\$0L 100 float 3;
#A 0 0 0 0 0 0 0 0 0 0 0 0 0 0 0 0 0 0 0 0 0 0 0 0 0 0 0 0 0 0 0 0
0 0 0 0 0 0 0 0 0 0 0 0 0 0 0 0 0 0 0 0 0 0 0 0 0 0 0 0 0 0 0 0 0 0
0 0 0 0 0 0 0 0 0 0 0 0 0 0 0 0 0 0 0 0 0 0 0 0 0 0 0 0 0 0 0 0 0 0
0;
#X coords 0 1 100 -1 200 140 1 0 0;
#X restore 442 407 graph;
#X obj 343 757 hip~ 5;
#X obj 342 788 outlet~;
#X obj 267 731 *~;
#X obj 342 732 *~;
#X msg 579 154 0;
#X msg 539 157 1;
#X obj 396 303 loadbang;
#X msg 393 342 1;
#X obj 363 6 inlet;
#X obj 63 219 clip 0 1;
#X obj 63 251 *;
#X obj 459 28 pack s \$0;
#X msg 435 56 read -resize \$1 array-\$2L array-\$2R;
#X connect 0 0 1 0;
#X connect 1 0 3 0;
#X connect 2 0 52 0;
#X connect 3 0 2 0;
#X connect 4 0 9 0;
#X connect 5 0 6 1;
#X connect 6 0 7 0;
#X connect 7 0 3 1;
#X connect 9 0 11 0;
#X connect 9 1 10 1;
#X connect 10 0 6 0;
#X connect 11 0 10 0;
#X connect 12 0 5 0;
#X connect 12 0 4 0;
#X connect 13 0 31 1;
#X connect 13 0 34 0;
#X connect 13 0 48 0;
#X connect 13 0 47 0;
#X connect 14 0 26 0;
#X connect 15 0 20 0;
#X connect 16 0 18 0;
#X connect 17 0 45 1;
#X connect 17 0 46 1;
#X connect 18 0 17 0;
#X connect 19 0 41 0;
#X connect 20 0 14 0;
#X connect 21 0 26 1;
#X connect 21 0 37 0;
#X connect 22 0 21 1;
#X connect 22 0 25 1;
#X connect 22 1 23 0;
#X connect 23 0 21 0;
#X connect 24 0 15 0;
#X connect 25 0 31 0;
#X connect 26 0 25 0;
#X connect 27 0 23 0;
#X connect 28 0 22 0;
#X connect 29 0 30 0;
#X connect 30 0 15 0;
#X connect 30 1 20 1;
#X connect 31 0 39 0;
#X connect 31 0 40 0;
#X connect 32 0 33 0;
#X connect 33 0 24 1;
#X connect 34 0 32 0;
#X connect 34 1 33 1;
#X connect 35 0 24 0;
#X connect 36 0 35 0;
#X connect 37 0 36 0;
#X connect 37 1 35 1;
#X connect 39 0 45 0;
#X connect 40 0 46 0;
#X connect 43 0 44 0;
#X connect 45 0 19 0;
#X connect 46 0 43 0;
#X connect 47 0 22 0;
#X connect 48 0 23 0;
#X connect 49 0 50 0;
#X connect 50 0 30 0;
#X connect 51 0 54 0;
#X connect 52 0 53 0;
#X connect 52 0 53 1;
#X connect 53 0 8 0;
#X connect 53 0 16 0;
#X connect 54 0 55 0;
#X connect 55 0 13 0;
